<svg width="500" height="500" version="1.1" xmlns:xlink="http://www.w3.org/1999/xlink" xmlns="http://www.w3.org/2000/svg"><defs><clipPath id="e2"><rect x="68" y="10" width="364" height="477"/></clipPath><symbol><circle id="e3" cursor="crosshair" fill="#b12c43" r="6"/></symbol><symbol><circle id="e5" cursor="crosshair" fill="#008534" r="6"/></symbol></defs><rect width="100%" height="100%" fill="#fff" stroke-width="0px"/><path d="M250 248.5A 0 0 0 1 1 250 248.5M250 248.5A 0 0 0 1 1 250 248.5M204.5 248.5A 45.5 45.5 0 1 1 295.5 248.5M295.5 248.5A 45.5 45.5 0 1 1 204.5 248.5M159 248.5A 91 91 0 1 1 341 248.5M341 248.5A 91 91 0 1 1 159 248.5M113.5 248.5A 136.5 136.5 0 1 1 386.5 248.5M386.5 248.5A 136.5 136.5 0 1 1 113.5 248.5M68 248.5A 182 182 0 1 1 432 248.5M432 248.5A 182 182 0 1 1 68 248.5M250 248.5l2.2289E-14 -182M250 248.5l-84.58 -161.15M250 248.5l-149.78 -103.39M250 248.5l-180.67 -21.938M250 248.5l-170.17 64.538M250 248.5l-120.69 136.23M250 248.5l-43.555 176.71M250 248.5l43.555 176.71M250 248.5l120.69 136.23M250 248.5l170.17 64.538M250 248.5l180.67 -21.938M250 248.5l149.78 -103.39M250 248.5l84.58 -161.15M250 248.5l6.6866E-14 -182" stroke="#666" fill="none"/><g clip-path="url(#e2)"><path fill="none" stroke-dasharray="" stroke-width="5px" stroke="#b12c43" d="M250 157.5 L292.29 167.92 324.89 196.81 340.34 237.53 335.09 280.77 310.34 316.61 271.78 336.86 239.11 292.68 219.83 282.56 164.91 280.77 204.83 243.02 212.55 222.65 228.86 208.21 z"/><path fill="none" stroke-dasharray="" stroke-width="5px" stroke="#008534" d="M250 157.5 L292.29 167.92 324.89 196.81 340.34 237.53 335.09 280.77 310.34 316.61 271.78 336.86 228.22 336.86 159.48 350.67 164.91 280.77 159.66 237.53 175.11 196.81 207.71 167.92 z"/></g><path d="M250 63.5l-3.6739E-16 3M164.03 84.691l1.3942 2.6564M97.748 143.41l2.469 1.7042M66.349 226.2l2.9781 0.36161M77.022 314.1l2.805 -1.0638M127.32 386.97l1.9894 -2.2455M205.73 428.12l0.71795 -2.9128M294.27 428.12l-0.71795 -2.9128M372.68 386.97l-1.9894 -2.2455M422.98 314.1l-2.805 -1.0638M433.65 226.2l-2.9781 0.36161M402.25 143.41l-2.469 1.7042M335.97 84.691l-1.3942 2.6564M250 63.5l-1.1022E-15 3M253 248.5l-6 -1.1022E-15M253 203l-6 -1.1022E-15M253 157.5l-6 -1.1022E-15M253 112l-6 -1.1022E-15M253 66.5l-6 -1.1022E-15" stroke-width="1px" stroke="#666"/><g stroke="#666" stroke-width="2px"><path d="M68 248.5A 182 182 0 1 1 432 248.5M432 248.5A 182 182 0 1 1 68 248.5" fill="none"/><path d="M250 248.5l2.2534E-14 -184"/></g><g font-size="12px" font-family="Georgia" fill="#666"><g text-anchor="end"><text x="245" y="248.5">0</text><text x="245" y="203">1</text><text x="245" y="157.5">2</text><text x="245" y="112">3</text><text x="245" y="66.5">4</text></g><text x="250" y="51.9" text-anchor="middle">C1</text><text x="336.9" y="79.32" text-anchor="start">C2</text><text x="403.9" y="138.67" text-anchor="start">C3</text><text x="435.64" y="222.36" text-anchor="start">C4</text><text x="424.85" y="323.21" text-anchor="start">C5</text><text x="374" y="396.87" text-anchor="start">C6</text><text x="294.75" y="438.47" text-anchor="start">C7</text><text x="205.25" y="438.47" text-anchor="end">C8</text><text x="126" y="396.87" text-anchor="end">C9</text><text x="75.152" y="323.21" text-anchor="end">C10</text><text x="64.363" y="222.36" text-anchor="end">C11</text><text x="96.102" y="138.67" text-anchor="end">C12</text><text x="163.1" y="79.32" text-anchor="end">C13</text></g><use x="250" y="157.5" xlink:href="#e3" id="e7"></use><use x="292.29" y="167.92" xlink:href="#e3" id="e8"></use><use x="324.89" y="196.81" xlink:href="#e3" id="e9"></use><use x="340.34" y="237.53" xlink:href="#e3" id="ea"></use><use x="335.09" y="280.77" xlink:href="#e3" id="eb"></use><use x="310.34" y="316.61" xlink:href="#e3" id="ec"></use><use x="271.78" y="336.86" xlink:href="#e3" id="ed"></use><use x="239.11" y="292.68" xlink:href="#e3" id="ee"></use><use x="219.83" y="282.56" xlink:href="#e3" id="ef"></use><use x="164.91" y="280.77" xlink:href="#e3" id="eg"></use><use x="204.83" y="243.02" xlink:href="#e3" id="eh"></use><use x="212.55" y="222.65" xlink:href="#e3" id="ei"></use><use x="228.86" y="208.21" xlink:href="#e3" id="ej"></use><use x="250" y="157.5" xlink:href="#e5" id="ek"></use><use x="292.29" y="167.92" xlink:href="#e5" id="el"></use><use x="324.89" y="196.81" xlink:href="#e5" id="em"></use><use x="340.34" y="237.53" xlink:href="#e5" id="en"></use><use x="335.09" y="280.77" xlink:href="#e5" id="eo"></use><use x="310.34" y="316.61" xlink:href="#e5" id="ep"></use><use x="271.78" y="336.86" xlink:href="#e5" id="eq"></use><use x="228.22" y="336.86" xlink:href="#e5" id="er"></use><use x="159.48" y="350.67" xlink:href="#e5" id="es"></use><use x="164.91" y="280.77" xlink:href="#e5" id="et"></use><use x="159.66" y="237.53" xlink:href="#e5" id="eu"></use><use x="175.11" y="196.81" xlink:href="#e5" id="ev"></use><use x="207.71" y="167.92" xlink:href="#e5" id="ew"></use><g font-family="sans-serif" font-size="15px" fill="#666" transform="translate(0,450)" id="ex"><rect fill="white" width="317" height="50"/><text x="158.5" y="16.25" text-anchor="middle" font-weight="bold">Legend</text><g transform="translate(5,0)"><path fill="none" stroke-dasharray="" stroke-width="5px" stroke="#b12c43" d="M0 35l20 0"/><use x="10" y="35" xlink:href="#e3"></use></g><g transform="translate(161,0)"><path fill="none" stroke-dasharray="" stroke-width="5px" stroke="#008534" d="M0 35l20 0"/><use x="10" y="35" xlink:href="#e5"></use></g><g transform="translate(30,0)"><text x="0" y="38.75">Required Level</text></g><g transform="translate(186,0)"><text x="0" y="38.75">Assessed Level</text></g></g></svg>
