<svg width="650" height="300" version="1.1" xmlns:xlink="http://www.w3.org/1999/xlink" xmlns="http://www.w3.org/2000/svg"><rect width="100%" height="100%" fill="#fff" stroke-width="0px"/><g><path d="M103.82 10v263M113.64 10v263M123.46 10v263M133.28 10v263M152.92 10v263M162.74 10v263M172.56 10v263M182.38 10v263M202.02 10v263M211.84 10v263M221.66 10v263M231.48 10v263M251.12 10v263M260.94 10v263M270.76 10v263M280.58 10v263M300.22 10v263M310.04 10v263M319.86 10v263M329.68 10v263M349.32 10v263M359.14 10v263M368.96 10v263M378.78 10v263M398.42 10v263M408.24 10v263M418.06 10v263M427.88 10v263M447.52 10v263M457.34 10v263M467.16 10v263M476.98 10v263M496.62 10v263M506.44 10v263M516.26 10v263M526.08 10v263M545.72 10v263M555.54 10v263M565.36 10v263M575.18 10v263" stroke="#eee"/><path d="M94 273h491M94 10h491M94 10v263M143.1 10v263M192.2 10v263M241.3 10v263M290.4 10v263M339.5 10v263M388.6 10v263M437.7 10v263M486.8 10v263M535.9 10v263M585 10v263" stroke="#666"/></g><rect height="30" y="126.5" x="94" width="491" id="e1a" style="fill:#8064A2;stroke:#666;stroke-width:1px;"/><path d="M94 276v-3M143.1 276v-3M192.2 276v-3M241.3 276v-3M290.4 276v-3M339.5 276v-3M388.6 276v-3M437.7 276v-3M486.8 276v-3M535.9 276v-3M585 276v-3M91 273h3M91 10h3M103.82 275v-2M113.64 275v-2M123.46 275v-2M133.28 275v-2M152.92 275v-2M162.74 275v-2M172.56 275v-2M182.38 275v-2M202.02 275v-2M211.84 275v-2M221.66 275v-2M231.48 275v-2M251.12 275v-2M260.94 275v-2M270.76 275v-2M280.58 275v-2M300.22 275v-2M310.04 275v-2M319.86 275v-2M329.68 275v-2M349.32 275v-2M359.14 275v-2M368.96 275v-2M378.78 275v-2M398.42 275v-2M408.24 275v-2M418.06 275v-2M427.88 275v-2M447.52 275v-2M457.34 275v-2M467.16 275v-2M476.98 275v-2M496.62 275v-2M506.44 275v-2M516.26 275v-2M526.08 275v-2M545.72 275v-2M555.54 275v-2M565.36 275v-2M575.18 275v-2" stroke-width="1px" stroke="#666"/><g stroke="#666" stroke-width="2px"><path d="M92 273h495"/><path d="M94 8v267"/></g><g font-size="16px" font-family="Arial" fill="#666"><g text-anchor="end"><text x="89" y="146.3">TEST</text></g><g text-anchor="middle"><text y="289.2" x="94">0</text><text y="289.2" x="143.1">10</text><text y="289.2" x="192.2">20</text><text y="289.2" x="241.3">30</text><text y="289.2" x="290.4">40</text><text y="289.2" x="339.5">50</text><text y="289.2" x="388.6">60</text><text y="289.2" x="437.7">70</text><text y="289.2" x="486.8">80</text><text y="289.2" x="535.9">90</text><text y="289.2" x="585">100</text></g></g><g><g><text font-family="sans-serif" font-size="12px" fill="#fff" y="145.7" x="582" text-anchor="end">100</text></g></g></svg>
