<svg width="650" height="300" version="1.1" xmlns:xlink="http://www.w3.org/1999/xlink" xmlns="http://www.w3.org/2000/svg"><rect width="100%" height="100%" fill="#fff" stroke-width="0px"/><g><path d="M137.66 10v263M143.32 10v263M148.99 10v263M154.65 10v263M160.31 10v263M165.97 10v263M171.64 10v263M182.96 10v263M188.62 10v263M194.29 10v263M199.95 10v263M205.61 10v263M211.27 10v263M216.94 10v263M228.26 10v263M233.93 10v263M239.59 10v263M245.25 10v263M250.91 10v263M256.57 10v263M262.24 10v263M273.56 10v263M279.22 10v263M284.89 10v263M290.55 10v263M296.21 10v263M301.88 10v263M307.54 10v263M318.86 10v263M324.52 10v263M330.19 10v263M335.85 10v263M341.51 10v263M347.17 10v263M352.84 10v263M364.16 10v263M369.82 10v263M375.49 10v263M381.15 10v263M386.81 10v263M392.48 10v263M398.14 10v263M409.46 10v263M415.12 10v263M420.79 10v263M426.45 10v263M432.11 10v263M437.77 10v263M443.44 10v263M454.76 10v263M460.42 10v263M466.09 10v263M471.75 10v263M477.41 10v263M483.07 10v263M488.74 10v263M500.06 10v263M505.72 10v263M511.39 10v263M517.05 10v263M522.71 10v263M528.38 10v263M534.04 10v263M545.36 10v263M551.02 10v263M556.69 10v263M562.35 10v263M568.01 10v263M573.67 10v263M579.34 10v263" stroke="#eee"/><path d="M132 273h453M132 141.5h453M132 10h453M132 10v263M177.3 10v263M222.6 10v263M267.9 10v263M313.2 10v263M358.5 10v263M403.8 10v263M449.1 10v263M494.4 10v263M539.7 10v263M585 10v263" stroke="#666"/></g><rect height="30" y="192.25" x="132" width="453" id="ej" style="fill:#8064A2;stroke:#666;stroke-width:1px;"/><rect height="30" y="60.75" x="132" width="226.5" id="el" style="fill:#8064A2;stroke:#666;stroke-width:1px;"/><path d="M132 276v-3M177.3 276v-3M222.6 276v-3M267.9 276v-3M313.2 276v-3M358.5 276v-3M403.8 276v-3M449.1 276v-3M494.4 276v-3M539.7 276v-3M585 276v-3M129 273h3M129 141.5h3M129 10h3M137.66 275v-2M143.32 275v-2M148.99 275v-2M154.65 275v-2M160.31 275v-2M165.97 275v-2M171.64 275v-2M182.96 275v-2M188.62 275v-2M194.29 275v-2M199.95 275v-2M205.61 275v-2M211.27 275v-2M216.94 275v-2M228.26 275v-2M233.93 275v-2M239.59 275v-2M245.25 275v-2M250.91 275v-2M256.57 275v-2M262.24 275v-2M273.56 275v-2M279.22 275v-2M284.89 275v-2M290.55 275v-2M296.21 275v-2M301.88 275v-2M307.54 275v-2M318.86 275v-2M324.52 275v-2M330.19 275v-2M335.85 275v-2M341.51 275v-2M347.17 275v-2M352.84 275v-2M364.16 275v-2M369.82 275v-2M375.49 275v-2M381.15 275v-2M386.81 275v-2M392.48 275v-2M398.14 275v-2M409.46 275v-2M415.12 275v-2M420.79 275v-2M426.45 275v-2M432.11 275v-2M437.77 275v-2M443.44 275v-2M454.76 275v-2M460.42 275v-2M466.09 275v-2M471.75 275v-2M477.41 275v-2M483.07 275v-2M488.74 275v-2M500.06 275v-2M505.72 275v-2M511.39 275v-2M517.05 275v-2M522.71 275v-2M528.38 275v-2M534.04 275v-2M545.36 275v-2M551.02 275v-2M556.69 275v-2M562.35 275v-2M568.01 275v-2M573.67 275v-2M579.34 275v-2" stroke-width="1px" stroke="#666"/><g stroke="#666" stroke-width="2px"><path d="M130 273h457"/><path d="M132 8v267"/></g><g font-size="16px" font-family="Arial" fill="#666"><g text-anchor="end"><text x="127" y="212.05">INBASKET</text><text x="127" y="80.55">TEST</text></g><g text-anchor="middle"><text y="289.2" x="132">0</text><text y="289.2" x="177.3">10</text><text y="289.2" x="222.6">20</text><text y="289.2" x="267.9">30</text><text y="289.2" x="313.2">40</text><text y="289.2" x="358.5">50</text><text y="289.2" x="403.8">60</text><text y="289.2" x="449.1">70</text><text y="289.2" x="494.4">80</text><text y="289.2" x="539.7">90</text><text y="289.2" x="585">100</text></g></g><g><g><text font-family="sans-serif" font-size="12px" fill="#fff" y="211.45" x="582" text-anchor="end">100</text></g><g><text font-family="sans-serif" font-size="12px" fill="#fff" y="79.95" x="355.5" text-anchor="end">50</text></g></g></svg>
