<svg width="650" height="300" version="1.1" xmlns:xlink="http://www.w3.org/1999/xlink" xmlns="http://www.w3.org/2000/svg"><rect width="100%" height="100%" fill="#fff" stroke-width="0px"/><g><path d="M159.68 10v263M168.36 10v263M177.04 10v263M185.72 10v263M203.08 10v263M211.76 10v263M220.44 10v263M229.12 10v263M246.48 10v263M255.16 10v263M263.84 10v263M272.52 10v263M289.88 10v263M298.56 10v263M307.24 10v263M315.92 10v263M333.28 10v263M341.96 10v263M350.64 10v263M359.32 10v263M376.68 10v263M385.36 10v263M394.04 10v263M402.72 10v263M420.08 10v263M428.76 10v263M437.44 10v263M446.12 10v263M463.48 10v263M472.16 10v263M480.84 10v263M489.52 10v263M506.88 10v263M515.56 10v263M524.24 10v263M532.92 10v263M550.28 10v263M558.96 10v263M567.64 10v263M576.32 10v263" stroke="#eee"/><path d="M151 273h434M151 185.33h434M151 97.667h434M151 10h434M151 10v263M194.4 10v263M237.8 10v263M281.2 10v263M324.6 10v263M368 10v263M411.4 10v263M454.8 10v263M498.2 10v263M541.6 10v263M585 10v263" stroke="#666"/></g><rect height="30" y="214.17" x="151" width="434" id="e2" style="fill:#8064A2;stroke:#666;stroke-width:1px;"/><rect height="30" y="126.5" x="151" width="434" id="e4" style="fill:#8064A2;stroke:#666;stroke-width:1px;"/><rect height="30" y="38.833" x="151" width="217" id="e6" style="fill:#8064A2;stroke:#666;stroke-width:1px;"/><path d="M151 276v-3M194.4 276v-3M237.8 276v-3M281.2 276v-3M324.6 276v-3M368 276v-3M411.4 276v-3M454.8 276v-3M498.2 276v-3M541.6 276v-3M585 276v-3M148 273h3M148 185.33h3M148 97.667h3M148 10h3M159.68 275v-2M168.36 275v-2M177.04 275v-2M185.72 275v-2M203.08 275v-2M211.76 275v-2M220.44 275v-2M229.12 275v-2M246.48 275v-2M255.16 275v-2M263.84 275v-2M272.52 275v-2M289.88 275v-2M298.56 275v-2M307.24 275v-2M315.92 275v-2M333.28 275v-2M341.96 275v-2M350.64 275v-2M359.32 275v-2M376.68 275v-2M385.36 275v-2M394.04 275v-2M402.72 275v-2M420.08 275v-2M428.76 275v-2M437.44 275v-2M446.12 275v-2M463.48 275v-2M472.16 275v-2M480.84 275v-2M489.52 275v-2M506.88 275v-2M515.56 275v-2M524.24 275v-2M532.92 275v-2M550.28 275v-2M558.96 275v-2M567.64 275v-2M576.32 275v-2" stroke-width="1px" stroke="#666"/><g stroke="#666" stroke-width="2px"><path d="M149 273h438"/><path d="M151 8v267"/></g><g font-size="16px" font-family="Arial" fill="#666"><g text-anchor="end"><text x="146" y="233.97">CASE_STUDY</text><text x="146" y="146.3">INBASKET</text><text x="146" y="58.633">TEST</text></g><g text-anchor="middle"><text y="289.2" x="151">0</text><text y="289.2" x="194.4">10</text><text y="289.2" x="237.8">20</text><text y="289.2" x="281.2">30</text><text y="289.2" x="324.6">40</text><text y="289.2" x="368">50</text><text y="289.2" x="411.4">60</text><text y="289.2" x="454.8">70</text><text y="289.2" x="498.2">80</text><text y="289.2" x="541.6">90</text><text y="289.2" x="585">100</text></g></g><g><g><text font-family="sans-serif" font-size="12px" fill="#fff" y="233.37" x="582" text-anchor="end">100</text></g><g><text font-family="sans-serif" font-size="12px" fill="#fff" y="145.7" x="582" text-anchor="end">100</text></g><g><text font-family="sans-serif" font-size="12px" fill="#fff" y="58.033" x="365" text-anchor="end">50</text></g></g></svg>
