<svg width="500" height="500" version="1.1" xmlns:xlink="http://www.w3.org/1999/xlink" xmlns="http://www.w3.org/2000/svg"><defs><clipPath id="e2"><rect x="72" y="10" width="356" height="477"/></clipPath><symbol><circle id="e3" cursor="crosshair" fill="#b12c43" r="6"/></symbol><symbol><circle id="e5" cursor="crosshair" fill="#008534" r="6"/></symbol></defs><rect width="100%" height="100%" fill="#fff" stroke-width="0px"/><path d="M250 248.5A 0 0 0 1 1 250 248.5M250 248.5A 0 0 0 1 1 250 248.5M205.5 248.5A 44.5 44.5 0 1 1 294.5 248.5M294.5 248.5A 44.5 44.5 0 1 1 205.5 248.5M161 248.5A 89 89 0 1 1 339 248.5M339 248.5A 89 89 0 1 1 161 248.5M116.5 248.5A 133.5 133.5 0 1 1 383.5 248.5M383.5 248.5A 133.5 133.5 0 1 1 116.5 248.5M72 248.5A 178 178 0 1 1 428 248.5M428 248.5A 178 178 0 1 1 72 248.5M250 248.5l2.1799E-14 -178M250 248.5l-89 -154.15M250 248.5l-154.15 -89M250 248.5l-178 -3.2698E-14M250 248.5l-154.15 89M250 248.5l-89 154.15M250 248.5l-4.3597E-14 178M250 248.5l89 154.15M250 248.5l154.15 89M250 248.5l178 5.4497E-14M250 248.5l154.15 -89M250 248.5l89 -154.15M250 248.5l6.5396E-14 -178" stroke="#666" fill="none"/><g clip-path="url(#e2)"><path fill="none" stroke-dasharray="" stroke-width="5px" stroke="#b12c43" d="M250 204 L272.25 209.96 288.54 226.25 294.5 248.5 288.54 270.75 272.25 287.04 250 293 205.5 325.58 211.46 270.75 205.5 248.5 211.46 226.25 227.75 209.96 z"/><path fill="none" stroke-dasharray="" stroke-width="5px" stroke="#008534" d="M250 204 L272.25 209.96 288.54 226.25 294.5 248.5 288.54 270.75 272.25 287.04 250 293 205.5 325.58 211.46 270.75 205.5 248.5 211.46 226.25 227.75 209.96 z"/></g><path d="M250 67.5l-3.6739E-16 3M159.5 91.749l1.5 2.5981M93.249 158l2.5981 1.5M69 248.5l3 5.5109E-16M93.249 339l2.5981 -1.5M159.5 405.25l1.5 -2.5981M250 429.5l7.3479E-16 -3M340.5 405.25l-1.5 -2.5981M406.75 339l-2.5981 -1.5M431 248.5l-3 -9.1849E-16M406.75 158l-2.5981 1.5M340.5 91.749l-1.5 2.5981M250 67.5l-1.1022E-15 3M253 248.5l-6 -1.1022E-15M253 204l-6 -1.1022E-15M253 159.5l-6 -1.1022E-15M253 115l-6 -1.1022E-15M253 70.5l-6 -1.1022E-15" stroke-width="1px" stroke="#666"/><g stroke="#666" stroke-width="2px"><path d="M72 248.5A 178 178 0 1 1 428 248.5M428 248.5A 178 178 0 1 1 72 248.5" fill="none"/><path d="M250 248.5l2.2044E-14 -180"/></g><g font-size="12px" font-family="Georgia" fill="#666"><g text-anchor="end"><text x="245" y="248.5">0</text><text x="245" y="204">1</text><text x="245" y="159.5">2</text><text x="245" y="115">3</text><text x="245" y="70.5">4</text></g><text x="250" y="55.9" text-anchor="middle">C1</text><text x="341.5" y="86.417" text-anchor="start">C2</text><text x="408.48" y="153.4" text-anchor="start">C3</text><text x="433" y="250.9" text-anchor="start">C4</text><text x="408.48" y="348.4" text-anchor="start">C5</text><text x="341.5" y="415.38" text-anchor="start">C6</text><text x="250" y="439.9" text-anchor="middle">C7</text><text x="158.5" y="415.38" text-anchor="end">C8</text><text x="91.517" y="348.4" text-anchor="end">C9</text><text x="67" y="250.9" text-anchor="end">C10</text><text x="91.517" y="153.4" text-anchor="end">C11</text><text x="158.5" y="86.417" text-anchor="end">C12</text></g><use x="250" y="204" xlink:href="#e3" id="e7"></use><use x="272.25" y="209.96" xlink:href="#e3" id="e8"></use><use x="288.54" y="226.25" xlink:href="#e3" id="e9"></use><use x="294.5" y="248.5" xlink:href="#e3" id="ea"></use><use x="288.54" y="270.75" xlink:href="#e3" id="eb"></use><use x="272.25" y="287.04" xlink:href="#e3" id="ec"></use><use x="250" y="293" xlink:href="#e3" id="ed"></use><use x="205.5" y="325.58" xlink:href="#e3" id="ee"></use><use x="211.46" y="270.75" xlink:href="#e3" id="ef"></use><use x="205.5" y="248.5" xlink:href="#e3" id="eg"></use><use x="211.46" y="226.25" xlink:href="#e3" id="eh"></use><use x="227.75" y="209.96" xlink:href="#e3" id="ei"></use><use x="250" y="204" xlink:href="#e5" id="ej"></use><use x="272.25" y="209.96" xlink:href="#e5" id="ek"></use><use x="288.54" y="226.25" xlink:href="#e5" id="el"></use><use x="294.5" y="248.5" xlink:href="#e5" id="em"></use><use x="288.54" y="270.75" xlink:href="#e5" id="en"></use><use x="272.25" y="287.04" xlink:href="#e5" id="eo"></use><use x="250" y="293" xlink:href="#e5" id="ep"></use><use x="205.5" y="325.58" xlink:href="#e5" id="eq"></use><use x="211.46" y="270.75" xlink:href="#e5" id="er"></use><use x="205.5" y="248.5" xlink:href="#e5" id="es"></use><use x="211.46" y="226.25" xlink:href="#e5" id="et"></use><use x="227.75" y="209.96" xlink:href="#e5" id="eu"></use><g font-family="sans-serif" font-size="15px" fill="#666" transform="translate(0,450)" id="ev"><rect fill="white" width="317" height="50"/><text x="158.5" y="16.25" text-anchor="middle" font-weight="bold">Legend</text><g transform="translate(5,0)"><path fill="none" stroke-dasharray="" stroke-width="5px" stroke="#b12c43" d="M0 35l20 0"/><use x="10" y="35" xlink:href="#e3"></use></g><g transform="translate(161,0)"><path fill="none" stroke-dasharray="" stroke-width="5px" stroke="#008534" d="M0 35l20 0"/><use x="10" y="35" xlink:href="#e5"></use></g><g transform="translate(30,0)"><text x="0" y="38.75">Required Level</text></g><g transform="translate(186,0)"><text x="0" y="38.75">Assessed Level</text></g></g></svg>
